<?xml version="1.0" encoding="UTF-8"?>
<svg id="_Слой_1" data-name="Слой_1" xmlns="http://www.w3.org/2000/svg" version="1.1" xmlns:xodm="http://www.corel.com/coreldraw/odm/2003" viewBox="0 0 64.31 66.35">
  <!-- Generator: Adobe Illustrator 30.2.1, SVG Export Plug-In . SVG Version: 2.1.1 Build 1)  -->
  <defs>
    <style>
      .st0 {
        fill: #0f2b3c;
        fill-rule: evenodd;
      }
    </style>
  </defs>
  <g id="_Слой_x5F_1" data-name="Слой_x5F_1">
    <path class="st0" d="M9.22,9.73C4.95,14.13,2.04,19.54.68,25.44h5.65C9.58,14.01,19.84,5.64,31.95,5.64c10.39,0,19.41,6.15,23.82,15.11H17.22l-1.99,9.9H-.11c-.06.84-.09,1.68-.09,2.53,0,8.86,3.35,17.19,9.42,23.46,6.07,6.27,14.15,9.72,22.74,9.72s16.66-3.45,22.74-9.72,9.42-14.6,9.42-23.46c0-.67-.02-1.33-.06-1.99h-5.47c.05.66.07,1.32.07,1.99,0,15.19-11.98,27.55-26.7,27.55-13.95,0-25.43-11.09-26.6-25.17h8.9l-2.02,10.06h16.15l1.07-5.22h-10.3l.97-4.84h7.91l1-4.91h-7.92l.94-4.67h15.94s-2.92,14.43-2.92,14.43h-.04l-1.07,5.22h5.97l3.93-19.64h3.07s.07,0,.11,0h16.32c-1.31-6.11-4.27-11.72-8.66-16.25C48.62,3.47,40.55.02,31.95.02S15.29,3.47,9.22,9.73h0Z"/>
  </g>
</svg>