<?xml version="1.0" encoding="UTF-8"?>
<!DOCTYPE svg PUBLIC "-//W3C//DTD SVG 1.1//EN" "http://www.w3.org/Graphics/SVG/1.1/DTD/svg11.dtd">
<!-- Creator: CorelDRAW -->
<svg xmlns="http://www.w3.org/2000/svg" xml:space="preserve" width="22.6888mm" height="23.4068mm" version="1.1" style="shape-rendering:geometricPrecision; text-rendering:geometricPrecision; image-rendering:optimizeQuality; fill-rule:evenodd; clip-rule:evenodd"
viewBox="0 0 2268.88 2340.68"
 xmlns:xlink="http://www.w3.org/1999/xlink"
 xmlns:xodm="http://www.corel.com/coreldraw/odm/2003">
 <defs>
  <style type="text/css">
   <![CDATA[
    .fil0 {fill:#135472}
   ]]>
  </style>
 </defs>
 <g id="Слой_x0020_1">
  <metadata id="CorelCorpID_0Corel-Layer"/>
  <path class="fil0" d="M325.13 343.32c-150.34,155.1 -253.2,346.09 -301.24,554.23l199.47 0c114.77,-403.14 476.54,-698.41 903.94,-698.41 366.52,0 684.77,217.1 840.37,533.2l-144.36 0 -467.39 0 -136.12 0 -78.81 0 -533.5 0 -70.13 349.29 -347.95 0 -193.31 0c-2.15,29.57 -3.24,59.32 -3.24,89.24 0,312.59 118.01,606.5 332.27,827.55 214.27,221.05 499.17,342.79 802.17,342.79 303,0 587.89,-121.74 802.16,-342.79 214.27,-221.05 332.28,-514.96 332.28,-827.55 0.04,-23.56 -0.7,-47.03 -2.06,-70.37l-192.95 0c1.61,23.24 2.53,46.71 2.53,70.37 0,535.81 -422.54,971.73 -941.92,971.73 -492.1,0.03 -897.26,-391.24 -938.5,-888.08l313.8 0 -71.27 354.93 483.63 0 86.07 0 37.71 -184.08 -363.34 0 34.17 -170.85 117.88 0 161.06 0 35.18 -173.25 -279.42 0 32.99 -164.85 327.81 0 4.77 0 33.3 0 196.29 0 0 0.05 -102.92 508.95 -1.44 0 -37.72 184.03 1.93 0 199.83 0 8.93 0 138.79 -692.98 108.46 0c1.27,0 2.53,-0.02 3.79,-0.05l464.26 0 111.62 0c-46.07,-215.46 -150.59,-413.31 -305.49,-573.1 -214.27,-221.04 -499.16,-342.79 -802.21,-342.79 -303.04,0 -587.9,121.75 -802.17,342.79z"/>
 </g>
</svg>
